<?xml version="1.0" encoding="UTF-8"?>
<!DOCTYPE svg PUBLIC "-//W3C//DTD SVG 1.1//EN" "http://www.w3.org/Graphics/SVG/1.1/DTD/svg11.dtd">
<!-- Creator: CorelDRAW X6 -->
<svg xmlns="http://www.w3.org/2000/svg" xml:space="preserve" width="161.271mm" height="30mm" version="1.1" style="shape-rendering:geometricPrecision; text-rendering:geometricPrecision; image-rendering:optimizeQuality; fill-rule:evenodd; clip-rule:evenodd"
viewBox="0 0 24101 4483"
 xmlns:xlink="http://www.w3.org/1999/xlink">
 <defs>
  <style type="text/css">
   <![CDATA[
    .fil0 {fill:#182127}
   ]]>
  </style>
 </defs>
 <g id="Layer_x0020_1">
  <metadata id="CorelCorpID_0Corel-Layer"/>
  <g id="_826517712">
   <path class="fil0" d="M798 2563l-12 -23c-1,-3 -2,-5 -3,-8l-27 -252c-3,-96 1,-223 16,-313 93,-539 296,-917 684,-1255 995,-868 2771,-499 3210,1045 101,352 71,814 -45,1140 -93,261 -191,414 -354,615 -57,71 -110,115 -160,167 -195,202 -538,388 -820,474 -531,161 -1099,78 -1561,-211 -72,-46 -126,-84 -192,-135 -57,-44 -121,-103 -182,-144 -81,-54 -187,-4 -197,81 -12,101 88,150 138,193 1377,1176 3289,294 3616,-1137 251,-1099 -255,-2101 -1185,-2564 -316,-157 -643,-237 -1063,-236 -769,2 -1391,456 -1713,885 -395,528 -580,1242 -330,2036 24,77 49,173 79,239 35,79 136,108 206,39 38,-37 117,-432 138,-516 159,-620 473,-1234 1038,-1556 121,-69 301,-143 472,-170 230,-36 386,-20 594,14 75,13 197,69 265,24 81,-54 62,-173 -23,-215 -117,-57 -410,-91 -567,-90 -938,3 -1489,626 -1848,1394 -73,156 -84,201 -137,349 -15,41 -23,91 -37,130z"/>
   <path class="fil0" d="M2619 1666c160,-49 374,34 470,111 442,355 231,988 -252,1077 -535,100 -919,-532 -587,-958 118,-153 204,-179 369,-230zm956 623c0,-269 -92,-482 -256,-640 -540,-519 -1441,-150 -1433,612 5,469 365,843 831,851 457,9 858,-378 858,-823z"/>
   <path class="fil0" d="M4076 2046c-1,438 -188,819 -417,1045 -268,265 -592,454 -1007,453 -210,0 -419,-63 -566,-148 -76,-43 -141,-86 -214,-150 -86,-75 -217,-58 -228,61 -10,96 96,158 159,205 73,53 154,101 233,138 161,77 401,142 606,142 929,0 1678,-802 1678,-1764 0,-113 4,-255 -129,-255 -145,0 -115,158 -115,273z"/>
   <path class="fil0" d="M3791 1216c-150,90 -35,308 121,235 157,-73 23,-321 -121,-235z"/>
   <path class="fil0" d="M89 1591c-166,54 -77,303 80,249 167,-58 88,-302 -80,-249z"/>
   <path class="fil0" d="M1391 2612c-169,64 -73,292 79,248 169,-49 89,-312 -79,-248z"/>
  </g>
  <g id="_1588011360">
   <path class="fil0" d="M10338 1524c168,-9 262,301 88,422 -144,46 -126,48 -302,48 -85,0 -256,9 -330,-7l-2 -469c86,-15 462,-11 546,6zm-87 -346l-453 2 -6 -453c96,-2 193,-1 289,-1 149,1 143,8 268,44 141,54 145,392 -98,408zm-828 1160c110,25 544,6 686,7 234,0 421,-6 575,-116 290,-209 305,-755 -101,-887 18,-56 83,-38 159,-159 133,-211 93,-539 -136,-693 -159,-105 -319,-111 -539,-111 -130,1 -545,-15 -642,8l-2 1951z"/>
   <path class="fil0" d="M6083 1074c12,60 348,538 414,638 74,111 369,571 428,632l342 -1 2 -1955c-64,-19 -280,-12 -354,-5l-5 1325c-68,-36 -817,-1270 -871,-1308 -25,-32 2,-9 -36,-21l-141 -4c-63,0 -132,-8 -191,10l-3 1955c62,16 313,16 371,1 28,-192 -11,-1109 2,-1214 11,-94 -15,-48 42,-53z"/>
   <path class="fil0" d="M19466 686c178,-44 374,42 476,138 106,100 183,247 192,447 19,417 -127,708 -503,769 -169,27 -377,-58 -472,-150 -242,-236 -260,-690 -89,-959 113,-176 235,-204 396,-245zm86 -343c-1320,1 -1286,2053 14,2035 1289,-19 1269,-2036 -14,-2035z"/>
   <path class="fil0" d="M21254 723c381,-49 674,30 810,272 153,273 140,992 -473,1008 -303,8 -338,29 -341,-65 -9,-230 -11,-1040 4,-1215zm-360 1613c184,17 451,6 640,3 594,-7 981,-329 981,-969 0,-645 -403,-980 -967,-985 -191,-2 -471,-17 -653,3l-1 1948z"/>
   <path class="fil0" d="M15371 1628c4,-89 232,-749 259,-774 41,101 241,704 246,775l-505 -1zm-630 718l377 -1c24,-50 50,-137 70,-202 75,-242 20,-194 372,-194l424 1c66,88 91,304 152,383 69,32 278,14 370,12 5,-78 -424,-1245 -508,-1483 -18,-51 -142,-470 -198,-482l-379 1c-77,186 -258,735 -343,974 -48,135 -339,910 -337,991z"/>
   <path class="fil0" d="M12833 386c-57,-10 -117,-6 -175,-6 -33,0 -68,-2 -101,-1l-64 6c-3,1 -8,3 -10,4 -57,17 -21,887 -21,1009 0,174 20,332 -54,457 -155,260 -575,216 -697,24 -82,-130 -65,-292 -64,-466 1,-312 23,-727 -2,-1026l-357 -8c-14,111 -14,1281 2,1381 63,382 334,622 773,617 414,-4 703,-248 759,-624 21,-138 27,-1216 11,-1367z"/>
   <path class="fil0" d="M24101 2326l-4 -308c-234,-47 -618,25 -859,-15l-5 -485 766 -3 3 -312 -764 -3c-13,-71 -15,-430 5,-484l839 -4 1 -322c-157,-15 -1066,-21 -1190,4l-3 1936c96,16 1124,15 1211,-4z"/>
   <path class="fil0" d="M8875 1203c-13,-35 15,-6 -28,-19 -16,-4 -22,-4 -39,-5 -26,-2 -71,1 -100,1l-585 1 -3 -449 849 -1c24,-61 15,-120 15,-182l-15 -162c-20,-44 -913,-21 -1082,-22 -25,0 -145,-10 -149,22 -2,16 -15,-4 -14,91l1 878c1,185 -23,862 8,990 83,33 1105,24 1252,11l6 -308c-13,-52 2,-24 -26,-44 -48,-22 -146,-11 -201,-11 -158,0 -538,8 -649,-5l0 -454c165,-15 665,24 770,-15 2,-89 22,-276 -10,-317z"/>
   <path class="fil0" d="M17612 2378c282,-1 647,-167 751,-371 -20,-49 -77,-85 -111,-115 -42,-37 -77,-80 -130,-105 -85,38 -353,365 -715,225 -253,-97 -380,-316 -380,-642 0,-580 413,-793 780,-663 138,49 200,131 301,213 49,-13 235,-147 268,-201 -35,-95 -194,-218 -284,-269 -451,-254 -1464,-108 -1444,920 12,598 356,1009 964,1008z"/>
   <path class="fil0" d="M13322 2334l1190 6 -2 -337 -820 -3c-6,-225 23,-1526 -11,-1608 -18,-9 1,-5 -33,-10l-320 1 -4 1951z"/>
   <path class="fil0" d="M6549 4124l101 3 116 -351c6,-20 10,-46 15,-60 22,-70 -5,-35 30,-46l134 452 107 -1c35,-59 229,-651 232,-717l-140 0 -133 496c-36,-27 -123,-389 -164,-496l-79 1c-65,85 -111,413 -169,494 -33,-73 -109,-398 -128,-444 -23,-57 9,-53 -150,-52 5,119 179,580 228,721z"/>
   <path class="fil0" d="M18345 3975c-97,107 -304,12 -246,-108 36,-73 92,-65 135,-19 29,32 98,94 111,127zm-188 -439c138,-139 234,78 64,125 -46,-28 -69,-58 -64,-125zm-61 190c-127,58 -192,224 -64,339 162,145 388,10 439,1 47,73 50,67 170,59 -1,-47 -81,-115 -109,-150 15,-94 58,-87 47,-216l-89 -5c-2,6 -5,7 -6,14 -1,7 -8,19 -10,23l-41 84 -133 -125c53,-55 124,-66 132,-172 15,-215 -287,-237 -370,-101 -71,115 6,164 34,249z"/>
   <path class="fil0" d="M22824 3650c41,20 251,325 304,401 49,71 42,81 158,74 22,-79 12,-604 7,-719l-122 -3 -2 480c-35,-15 -318,-417 -354,-479l-118 3c-3,176 -18,512 -1,668 5,50 33,72 94,52 49,-16 33,-70 32,-137 -2,-110 -5,-231 2,-340z"/>
   <path class="fil0" d="M8529 3986c-39,51 -152,30 -214,26 -20,-60 -14,-132 -6,-195 48,-7 96,-8 145,-6 104,5 86,31 99,51 39,16 27,106 -24,124zm-217 -464c100,-13 248,-24 239,98 -8,110 -145,93 -239,83l0 -181zm-131 598c125,14 377,21 460,-42 46,-35 74,-90 68,-174 -7,-110 -60,-103 -102,-155 36,-57 77,-58 77,-156 1,-234 -323,-207 -501,-186l-2 713z"/>
   <path class="fil0" d="M16591 3876c-49,-19 -167,-209 -205,-259 -39,-53 -57,-79 -95,-132 -59,-85 -38,-91 -168,-78l-1 713 121 4 2 -480 355 478 119 -2 0 -716 -119 -3 -9 475z"/>
   <path class="fil0" d="M14601 3699l137 248c25,45 22,58 71,73 31,-29 179,-261 191,-312 72,-9 -3,248 38,421 57,12 76,14 132,-6l4 -720 -132 -8 -23 65 -209 357c-36,-16 -48,-54 -66,-87l-185 -316c-21,-20 49,-33 -124,-13l-4 722c61,21 77,20 134,4 21,-90 3,-352 8,-394 9,-65 -11,-33 28,-34z"/>
   <path class="fil0" d="M19305 3607c0,-81 -13,-91 77,-91 169,-1 267,83 267,247 0,216 -153,264 -343,232l-1 -388zm-119 -196c-3,206 -9,447 -2,651 3,81 25,77 255,65 509,-27 497,-874 -253,-716z"/>
   <path class="fil0" d="M13073 3522c121,-59 262,51 286,145 40,152 -14,281 -127,330 -278,119 -425,-344 -159,-475zm-34 -113c-443,173 -219,855 227,707 182,-60 279,-260 225,-466 -42,-162 -243,-323 -452,-241z"/>
   <path class="fil0" d="M22423 3998c33,-91 56,-132 41,-248l-295 -1 4 87 179 3c-3,32 3,31 -10,64 -25,61 -4,13 -33,36 -115,162 -397,56 -384,-190 6,-105 63,-191 148,-223 136,-51 205,29 282,57 43,-23 49,-33 72,-75 -120,-193 -651,-169 -638,269 11,355 461,478 634,221z"/>
   <path class="fil0" d="M9392 4000c-11,-74 -14,-418 3,-484 188,-8 332,42 333,247 1,200 -139,253 -336,237zm216 -575c-64,-58 -318,-32 -354,-22l-4 719c58,21 211,19 280,13 5,-1 35,-5 39,-6 38,-12 27,-14 41,-26 143,-7 255,-180 256,-340 2,-169 -116,-333 -258,-338z"/>
   <path class="fil0" d="M20741 3926c-42,18 -47,22 -81,49 39,174 413,215 513,50 164,-270 -261,-306 -361,-387l2 -85c166,-106 247,19 281,40 234,-78 -75,-243 -279,-181 -142,43 -190,229 -80,329 94,85 327,77 330,178 1,64 -79,101 -154,95 -90,-7 -112,-63 -171,-88z"/>
   <path class="fil0" d="M20466 4019c-294,-40 -348,111 -330,-199 187,-54 320,67 279,-105l-281 -11 7 -191 321 -10 -7 -101 -442 -1c-4,19 -20,611 -4,684 1,4 3,8 3,11 1,3 4,8 4,10 18,51 370,23 437,19l13 -106z"/>
   <path class="fil0" d="M10081 4118l445 7 -3 -120c-338,-9 -329,64 -310,-182l284 -7 3 -102 -288 -9 -3 -182 306 -7 7 -114 -433 -1 -8 717z"/>
   <path class="fil0" d="M10978 4124l103 3c45,-97 268,-641 279,-722l-145 1 -182 522c-29,-36 -82,-213 -101,-265 -15,-44 -34,-88 -49,-135 -7,-24 -12,-46 -20,-64 -27,-69 0,-62 -166,-61 9,75 241,662 281,721z"/>
   <path class="fil0" d="M13855 3529c301,-97 304,302 -1,212l1 -212zm-125 591l128 1c1,-48 1,-90 0,-132 0,-15 -1,-44 0,-57 2,-27 -1,-1 3,-26 19,-100 140,4 270,-85 99,-69 253,-487 -399,-414l-2 713z"/>
   <path class="fil0" d="M15439 4120c104,2 346,12 432,-8 38,-179 -85,-59 -310,-108l-3 -185 282 -11 9 -95 -279 -2c-24,-63 -16,-159 1,-193l300 -9 1 -97 -429 -5 -4 713z"/>
   <path class="fil0" d="M11562 4111l437 6 0 -96 -312 -8c-29,-59 -27,-144 0,-201l283 -5 4 -86 -251 -8c-64,-3 -17,4 -37,-21l-1 -175 325 -4 0 -107 -446 -3 -2 708z"/>
   <path class="fil0" d="M7932 4105l1 -79c-16,-64 -163,-21 -311,-35l3 -160 280 -2c21,-144 -1,-103 -15,-123l-262 1 -6 -178c127,-14 292,18 317,-26 13,-24 7,-84 -6,-97 -28,-29 -396,-19 -451,-6 -21,72 -20,648 -2,727 87,24 304,10 407,10 87,-10 18,2 45,-32z"/>
   <path class="fil0" d="M16937 3413l-13 101 196 4c16,155 7,440 6,602l123 4c22,-684 -94,-598 201,-609l0 -111c-133,-3 -432,-18 -513,9z"/>
   <path class="fil0" d="M12364 3407l-103 3c-42,21 -23,40 -23,169l4 544c64,27 367,24 438,2l6 -120c-82,-29 -203,-14 -289,-12 -25,-68 -11,-208 -11,-287 0,-59 22,-256 -22,-299z"/>
   <polygon class="fil0" points="21447,4120 21554,4119 21550,3408 21444,3409 "/>
  </g>
 </g>
</svg>
