<svg xmlns="http://www.w3.org/2000/svg" aria-hidden="true" style="position:absolute;width:0;height:0;overflow:hidden">
  <defs>
    <symbol id="icon-telegram-alt-svgrepo-com" viewBox="0 0 32 32">
      <path d="m25.6 5.867-21.733 8.4C2.4 14.8 2.4 15.734 3.6 16l5.467 1.733 2.133 6.4c.267.667.133.933.8.933.533 0 .8-.267 1.067-.533l2.667-2.667 5.6 4.133c1.067.533 1.733.267 2-.933l3.733-17.467c.4-1.467-.533-2.267-1.467-1.733zm-2.8 4-10.4 9.467-.4 4.4-2.133-6.4 12.267-7.733c.533-.4 1.067-.133.667.267z"/>
    </symbol>
    <symbol id="icon-whatsapp-svgrepo-com" viewBox="0 0 32 32">
      <path d="M22.84 18.98c-.38-.18-2.2-1.08-2.54-1.22s-.58-.18-.84.2-.96 1.2-1.18 1.46-.42.28-.8 0a10.302 10.302 0 0 1-2.991-1.849l.011.009a10.588 10.588 0 0 1-1.973-2.527L12.5 15c-.22-.36 0-.56.16-.76s.36-.42.56-.64a2.72 2.72 0 0 0 .353-.602l.007-.018a.76.76 0 0 0-.002-.664l.002.004c0-.18-.84-2-1.16-2.74s-.6-.64-.82-.64h-.8a1.435 1.435 0 0 0-.999.459L9.8 9.4a4.188 4.188 0 0 0-1.299 3.104v-.003a7.152 7.152 0 0 0 1.512 3.915l-.012-.015a16.76 16.76 0 0 0 6.285 5.556l.095.044c.88.38 1.56.6 2.1.78a5.108 5.108 0 0 0 2.371.135l-.031.005a3.876 3.876 0 0 0 2.511-1.744l.009-.016c.161-.378.255-.818.255-1.279 0-.17-.013-.336-.037-.499l.002.018c-.1-.14-.34-.24-.72-.42z"/>
      <path d="M26.58 5.36A14.676 14.676 0 0 0 16.123.999L15.994 1h.007C7.817 1.044 1.199 7.689 1.199 15.88c0 2.731.736 5.291 2.02 7.491l-.038-.071-2 7.7 7.88-2c2.043 1.133 4.481 1.8 7.074 1.8h.027-.161.097c8.218 0 14.88-6.662 14.88-14.88 0-4.128-1.681-7.864-4.396-10.559l-.001-.001zM16 28.24h-.01c-2.323 0-4.494-.647-6.345-1.771l.054.031-.44-.26-4.68 1.22 1.24-4.56-.28-.46a12.235 12.235 0 0 1-1.86-6.52c0-6.826 5.534-12.36 12.36-12.36 3.393 0 6.467 1.367 8.701 3.581l-.001-.001a12.203 12.203 0 0 1 3.62 8.69v.053-.003C28.348 22.702 22.821 28.229 16 28.24h-.001z"/>
    </symbol>
    <symbol id="icon-viber-svgrepo-com" viewBox="0 0 32 32">
      <path d="M16.991 17.94s.475.04.729-.275l.499-.627c.24-.309.819-.507 1.387-.192.487.279.891.541 1.281.821l-.044-.03c.376.276 1.147.92 1.149.92.368.311.453.765.203 1.245l-.003.011a5.26 5.26 0 0 1-1.031 1.272l-.005.004-.009.007q-.535.447-1.052.508a.7.7 0 0 1-.125.011l-.03-.001h.001-.011c-.156 0-.305-.025-.445-.072l.01.003-.012-.016c-.531-.151-1.416-.525-2.892-1.339a17.245 17.245 0 0 1-2.465-1.632l.035.027a12.88 12.88 0 0 1-1.094-.97l-.073-.073-.037-.036-.036-.037a12.818 12.818 0 0 1-.949-1.067l-.02-.026a17.042 17.042 0 0 1-1.56-2.341l-.045-.088c-.813-1.476-1.188-2.36-1.339-2.893l-.016-.011a1.376 1.376 0 0 1-.068-.431v-.016.001l-.001-.036a.69.69 0 0 1 .011-.121l-.001.004q.064-.516.509-1.053l.007-.009c.364-.405.784-.75 1.251-1.023l.025-.013.009-.001c.48-.251.936-.165 1.245.2.003.001.645.773.92 1.149.25.346.512.751.753 1.168l.038.071c.316.567.119 1.147-.192 1.387l-.627.497c-.316.256-.275.731-.275.731s.928 3.511 4.393 4.395zM15.82 7.44h-.004a.336.336 0 0 0-.337.336v.001c0 .186.15.337.336.337 1.804.013 3.272.596 4.475 1.768 1.192 1.163 1.801 2.743 1.817 4.815a.337.337 0 0 0 .337.336h.001a.338.338 0 0 0 .336-.337v-.003c-.017-2.205-.689-3.995-2.021-5.293-1.32-1.287-2.989-1.947-4.94-1.96zm.617 1.751-.025-.001a.336.336 0 0 0-.336.312v.001l-.001.025c0 .178.137.323.312.336h.001c1.288.095 2.243.516 2.94 1.276.699.764 1.031 1.693 1.005 2.855v.007c0 .184.147.334.33.337h.007a.337.337 0 0 0 .337-.328c.028-1.304-.368-2.436-1.183-3.325-.823-.899-1.973-1.392-3.387-1.495zM16.943 11h-.018a.338.338 0 0 0-.337.32v.019c0 .18.141.327.318.337h.001c.581.031.973.195 1.24.468.264.275.427.688.457 1.295.009.179.157.32.337.32h.016-.001a.337.337 0 0 0 .32-.337v-.014.001c-.036-.716-.24-1.312-.645-1.733-.407-.419-.991-.637-1.688-.673zm8.848-5.733c-.663-.611-3.341-2.555-9.307-2.581 0 0-7.033-.424-10.463 2.721-1.908 1.909-2.58 4.703-2.651 8.167-.071 3.463-.163 9.953 6.093 11.713h.007l-.004 2.687s-.04 1.087.676 1.308c.867.269 1.373-.557 2.2-1.448a67.79 67.79 0 0 0 1.553-1.756c4.28.36 7.571-.463 7.944-.585.864-.28 5.753-.907 6.547-7.396.821-6.689-.396-10.92-2.596-12.828zm.725 12.349c-.672 5.419-4.637 5.76-5.368 5.995-.311.1-3.201.819-6.836.581 0 0-2.708 3.267-3.555 4.117-.132.133-.287.187-.391.16-.147-.036-.187-.208-.184-.46l.023-4.463s-.003 0 0 0c-5.293-1.469-4.984-6.995-4.924-9.887.06-2.893.604-5.263 2.219-6.857 2.9-2.627 8.873-2.235 8.873-2.235 5.045.023 7.464 1.543 8.024 2.051 1.861 1.595 2.811 5.408 2.117 10.996z"/>
    </symbol>
    <symbol id="icon-messanger-svgrepo-com" viewBox="0 0 32 32">
      <path d="m17.256 19.218-3.414-3.546-6.574 3.636 7.208-7.649 3.414 3.546 6.574-3.636-7.208 7.649zm-1.39-16.551c-7.29 0-13.199 5.526-13.199 12.342 0 3.878 1.913 7.338 4.904 9.601v4.724l4.504-2.498c1.201.336 2.473.517 3.791.517 7.29 0 13.199-5.526 13.199-12.342S23.156 2.669 15.866 2.669z"/>
    </symbol>
    <symbol id="icon-linkedin-svgrepo-com" viewBox="0 0 32 32">
      <path d="M7.282 31.264V10.666H.436v20.598h6.846zM3.859 7.855c2.386 0 3.873-1.583 3.873-3.56C7.687 2.274 6.245.736 3.904.736S.031 2.274.031 4.295c0 1.977 1.486 3.56 3.783 3.56h.045zm7.211 23.409s.09-18.665 0-20.598h6.847v2.987h-.045c.9-1.406 2.522-3.471 6.215-3.471 4.505 0 7.882 2.944 7.882 9.271v11.811h-6.846V20.245c0-2.769-.991-4.658-3.469-4.658-1.891 0-3.018 1.274-3.513 2.505-.181.438-.225 1.054-.225 1.669v11.503h-6.847z"/>
    </symbol>
    <symbol id="icon-instagram-svgrepo-com" viewBox="0 0 32 32">
      <path d="M16 24a8 8 0 1 1 0-16 8 8 0 0 1 0 16zm0-2.667a5.333 5.333 0 1 0 0-10.667 5.333 5.333 0 0 0 0 10.667zM24 6.667a1.333 1.333 0 1 0 0 2.667 1.333 1.333 0 0 0 0-2.667z"/>
      <path d="M2.205 5.701a8.003 8.003 0 0 1 3.496-3.496c1.711-.872 3.951-.872 8.432-.872h3.733c4.48 0 6.721 0 8.432.872a8.003 8.003 0 0 1 3.496 3.496c.872 1.711.872 3.951.872 8.432v3.733c0 4.48 0 6.721-.872 8.432a8.003 8.003 0 0 1-3.496 3.496c-1.711.872-3.951.872-8.432.872h-3.733c-4.48 0-6.721 0-8.432-.872a8.003 8.003 0 0 1-3.496-3.496c-.872-1.711-.872-3.951-.872-8.432v-3.733c0-4.48 0-6.721.872-8.432zM17.867 4h-3.733c-2.284 0-3.837.002-5.037.1-1.169.096-1.767.269-2.184.481a5.331 5.331 0 0 0-2.331 2.331c-.213.417-.386 1.015-.481 2.184-.098 1.2-.1 2.753-.1 5.037v3.733c0 2.284.002 3.837.1 5.037.096 1.169.269 1.767.481 2.184a5.337 5.337 0 0 0 2.331 2.331c.417.213 1.015.386 2.184.481 1.2.098 2.753.1 5.037.1h3.733c2.284 0 3.837-.002 5.037-.1 1.169-.095 1.767-.269 2.184-.481a5.337 5.337 0 0 0 2.331-2.331c.213-.417.386-1.015.481-2.184.098-1.2.1-2.753.1-5.037v-3.733c0-2.284-.002-3.837-.1-5.037-.095-1.169-.269-1.767-.481-2.184a5.331 5.331 0 0 0-2.331-2.331c-.417-.213-1.015-.386-2.184-.481-1.2-.098-2.753-.1-5.037-.1z"/>
    </symbol>
    <symbol id="icon-facebook-svgrepo-com" viewBox="0 0 32 32">
      <path d="M17.794 6.85c0-1.287 1.15-1.75 2.438-1.75s2.663.4 2.663.4L23.72.6S21.97 0 17.795 0c-2.563 0-4.05.975-5.137 2.413-1.025 1.362-1.063 3.55-1.063 4.963v3.213H8.282v4.787h3.313v16.625h6.2V15.376h4.912l.363-4.787h-5.275V6.852z"/>
    </symbol>
    <symbol id="icon-moon-fill" viewBox="0 0 32 32">
      <path d="M24.633 22.184c-8.188 0-14.82-6.637-14.82-14.82 0-2.695.773-5.188 2.031-7.363C5.02 1.969 0 8.188 0 15.645 0 24.676 7.32 32 16.352 32c7.457 0 13.68-5.023 15.648-11.844-2.18 1.254-4.672 2.028-7.367 2.028z"/>
    </symbol>
    <symbol id="icon-moon-svgrepo-com" viewBox="0 0 32 32">
      <path d="M16.256 16C16.256 9.1 20.735 3.236 27 .991A16.63 16.63 0 0 0 21.372 0C12.33 0 5 7.164 5 16c0 8.837 7.33 16 16.372 16A16.63 16.63 0 0 0 27 31.009C20.735 28.764 16.256 22.901 16.256 16z"/>
    </symbol>
    <symbol id="icon-sun" viewBox="0 0 32 32">
      <path d="M16 26a2 2 0 0 1 2 2v2a2 2 0 1 1-4 0v-2a2 2 0 0 1 2-2zm0-20a2 2 0 0 1-2-2V2a2 2 0 1 1 4 0v2a2 2 0 0 1-2 2zm14 8a2 2 0 1 1 0 4h-2a2 2 0 1 1 0-4h2zM6 16a2 2 0 0 1-2 2H2a2 2 0 1 1 0-4h2a2 2 0 0 1 2 2zm19.899 7.071 1.414 1.414a2 2 0 1 1-2.828 2.828l-1.414-1.414a2 2 0 1 1 2.828-2.828zM6.101 8.929 4.687 7.515a2 2 0 1 1 2.828-2.828l1.414 1.414a2 2 0 1 1-2.828 2.828zm19.798 0a2 2 0 1 1-2.828-2.828l1.414-1.414a2 2 0 1 1 2.828 2.828l-1.414 1.414zM6.101 23.071a2 2 0 1 1 2.828 2.828l-1.414 1.414a2 2 0 1 1-2.828-2.828l1.414-1.414zM16 8a8 8 0 1 0 0 16 8 8 0 0 0 0-16zm0 13a5 5 0 1 1 .001-10.001A5 5 0 0 1 16 21z"/>
    </symbol>
<symbol id="icon-changeLanguage" viewBox="0 0 37 32">
<path fill="#424c57" style="fill: var(--color1, #424c57)" d="M27.636 28.862c-2.261 1.986-4.867 3.035-7.431 3.131-2.666 0.098-5.283-0.834-7.417-2.818l-1.083-1.005-3.867-3.148h-3.433c-1.815 0-3.117-1.495-3.301-3.301l-1.090-10.671c-0.184-1.805 1.492-3.447 3.301-3.3l13.52 1.089c1.809 0.145 3.301 1.485 3.301 3.301v9.581c0 1.816-1.486 3.301-3.301 3.301h-4.237l0.301 3.395 0.315 0.178c2.373 1.347 4.7 1.923 6.908 1.631 2.018-0.266 3.951-1.261 5.744-3.059l-1.104-0.971 4.591-1.023-0.538 4.807-1.178-1.12z"></path>
<path fill="#337ec6" style="fill: var(--color2, #337ec6)" d="M19.736 5.279l8.080-0.651-2.155-1.224c-2.374-1.346-4.701-1.923-6.909-1.631-2.018 0.266-3.951 1.261-5.744 3.059l1.104 0.971-4.591 1.023 0.538-4.807 1.178 1.12c2.261-1.986 4.867-3.035 7.431-3.131 2.667-0.098 5.283 0.834 7.418 2.818l1.924 1.787 5.245-0.423c1.81-0.145 3.485 1.495 3.301 3.301l-1.089 10.671c-0.184 1.806-1.487 3.301-3.301 3.301h-3.578l-5.13 4.176 0.37-4.176h-4.092c-1.815 0-3.301-1.485-3.301-3.301v-9.581c0-1.816 1.491-3.156 3.301-3.301z"></path>
<path fill="#fefefe" style="fill: var(--color3, #fefefe)" d="M4.045 19.124v-6.785h5.022v1.147h-3.648v1.506h3.392v1.147h-3.392v1.838h3.781v1.147h-5.155zM14.828 19.124h-1.298v-2.506c0-0.531-0.029-0.874-0.084-1.028-0.057-0.156-0.147-0.277-0.273-0.363s-0.278-0.13-0.455-0.13c-0.227 0-0.431 0.062-0.611 0.185-0.182 0.123-0.305 0.288-0.371 0.49-0.068 0.204-0.101 0.579-0.101 1.129v2.224h-1.298v-4.918h1.204v0.722c0.431-0.551 0.973-0.826 1.628-0.826 0.288 0 0.551 0.052 0.79 0.155 0.24 0.104 0.42 0.235 0.542 0.395s0.208 0.343 0.255 0.546c0.049 0.204 0.073 0.494 0.073 0.874v3.052z"></path>
<path fill="#fefefe" style="fill: var(--color3, #fefefe)" d="M21.964 10.050h1.374v3.677c0 0.584 0.017 0.962 0.050 1.133 0.058 0.278 0.196 0.502 0.414 0.67 0.22 0.169 0.518 0.253 0.897 0.253 0.384 0 0.674-0.079 0.87-0.239s0.313-0.354 0.352-0.586c0.040-0.232 0.060-0.616 0.060-1.153v-3.755h1.374v3.567c0 0.814-0.036 1.391-0.111 1.727s-0.21 0.621-0.409 0.853c-0.197 0.232-0.463 0.415-0.794 0.552-0.333 0.138-0.765 0.207-1.301 0.207-0.646 0-1.136-0.074-1.469-0.224s-0.597-0.344-0.791-0.584c-0.195-0.24-0.321-0.49-0.382-0.754-0.090-0.388-0.134-0.963-0.134-1.723v-3.622zM29.764 13.433l-1.175-0.208c0.133-0.48 0.362-0.836 0.685-1.067s0.806-0.346 1.444-0.346c0.579 0 1.012 0.069 1.297 0.206 0.282 0.138 0.483 0.311 0.599 0.523s0.173 0.599 0.173 1.164l-0.019 1.516c0 0.431 0.020 0.75 0.062 0.956s0.118 0.425 0.232 0.658h-1.289c-0.033-0.085-0.075-0.211-0.124-0.379-0.020-0.077-0.036-0.128-0.046-0.151-0.222 0.218-0.458 0.381-0.71 0.49s-0.522 0.164-0.808 0.164c-0.503 0-0.902-0.138-1.192-0.412s-0.436-0.621-0.436-1.041c0-0.277 0.067-0.524 0.2-0.743 0.132-0.216 0.317-0.383 0.557-0.499 0.238-0.115 0.583-0.216 1.033-0.303 0.606-0.114 1.028-0.222 1.262-0.319v-0.131c0-0.253-0.062-0.433-0.185-0.542-0.124-0.107-0.359-0.161-0.701-0.161-0.232 0-0.412 0.046-0.541 0.139-0.131 0.091-0.235 0.255-0.316 0.486zM31.508 14.485c-0.166 0.055-0.43 0.122-0.792 0.199-0.359 0.078-0.597 0.153-0.707 0.226-0.169 0.122-0.255 0.273-0.255 0.458 0 0.183 0.068 0.339 0.204 0.472s0.308 0.199 0.518 0.199c0.234 0 0.458-0.077 0.672-0.23 0.156-0.118 0.261-0.261 0.31-0.431 0.033-0.111 0.051-0.322 0.051-0.633v-0.259z"></path>
</symbol>

<symbol id="icon-logo_nebulacode" viewBox="0 0 172 32">
<path d="M5.696 18.295l-0.086-0.164c-0.007-0.021-0.014-0.036-0.021-0.057l-0.193-1.799c-0.021-0.685 0.007-1.592 0.114-2.234 0.664-3.847 2.113-6.545 4.882-8.958 7.102-6.195 19.778-3.562 22.912 7.459 0.721 2.512 0.507 5.81-0.321 8.137-0.664 1.863-1.363 2.955-2.527 4.39-0.407 0.507-0.785 0.821-1.142 1.192-1.392 1.442-3.84 2.769-5.853 3.383-3.79 1.149-7.844 0.557-11.142-1.506-0.514-0.328-0.899-0.6-1.37-0.964-0.407-0.314-0.864-0.735-1.299-1.028-0.578-0.385-1.335-0.029-1.406 0.578-0.086 0.721 0.628 1.071 0.985 1.378 9.828 8.394 23.475 2.098 25.809-8.115 1.792-7.844-1.82-14.996-8.458-18.301-2.255-1.121-4.589-1.692-7.587-1.684-5.489 0.014-9.928 3.255-12.227 6.317-2.819 3.769-4.14 8.865-2.355 14.532 0.171 0.55 0.35 1.235 0.564 1.706 0.25 0.564 0.971 0.771 1.47 0.278 0.271-0.264 0.835-3.083 0.985-3.683 1.135-4.425 3.376-8.808 7.409-11.106 0.864-0.492 2.148-1.021 3.369-1.213 1.642-0.257 2.755-0.143 4.24 0.1 0.535 0.093 1.406 0.492 1.891 0.171 0.578-0.385 0.443-1.235-0.164-1.535-0.835-0.407-2.926-0.65-4.047-0.642-6.695 0.021-10.628 4.468-13.19 9.95-0.521 1.113-0.6 1.435-0.978 2.491-0.107 0.293-0.164 0.65-0.264 0.928z"></path>
<path d="M18.693 11.892c1.142-0.35 2.669 0.243 3.355 0.792 3.155 2.534 1.649 7.052-1.799 7.687-3.819 0.714-6.559-3.797-4.19-6.838 0.842-1.092 1.456-1.278 2.634-1.642zM25.517 16.339c0-1.92-0.657-3.44-1.827-4.568-3.854-3.704-10.285-1.071-10.228 4.368 0.036 3.348 2.605 6.017 5.931 6.074 3.262 0.064 6.124-2.698 6.124-5.874z"></path>
<path d="M29.093 14.605c-0.007 3.126-1.342 5.846-2.976 7.459-1.913 1.891-4.225 3.24-7.188 3.233-1.499 0-2.991-0.45-4.040-1.056-0.542-0.307-1.006-0.614-1.527-1.071-0.614-0.535-1.549-0.414-1.627 0.435-0.071 0.685 0.685 1.128 1.135 1.463 0.521 0.378 1.099 0.721 1.663 0.985 1.149 0.55 2.862 1.014 4.325 1.014 6.631 0 11.977-5.724 11.977-12.591 0-0.807 0.029-1.82-0.921-1.82-1.035 0-0.821 1.128-0.821 1.949z"></path>
<path d="M27.058 8.68c-1.071 0.642-0.25 2.198 0.864 1.677 1.121-0.521 0.164-2.291-0.864-1.677z"></path>
<path d="M0.635 11.357c-1.185 0.385-0.55 2.163 0.571 1.777 1.192-0.414 0.628-2.156-0.571-1.777z"></path>
<path d="M9.928 18.644c-1.206 0.457-0.521 2.084 0.564 1.77 1.206-0.35 0.635-2.227-0.564-1.77z"></path>
<path d="M73.788 10.879c1.199-0.064 1.87 2.148 0.628 3.012-1.028 0.328-0.899 0.343-2.156 0.343-0.607 0-1.827 0.064-2.355-0.050l-0.014-3.348c0.614-0.107 3.298-0.079 3.897 0.043zM73.167 8.409l-3.233 0.014-0.043-3.233c0.685-0.014 1.378-0.007 2.063-0.007 1.064 0.007 1.021 0.057 1.913 0.314 1.006 0.385 1.035 2.798-0.699 2.912zM67.257 16.689c0.785 0.178 3.883 0.043 4.896 0.050 1.67 0 3.005-0.043 4.104-0.828 2.070-1.492 2.177-5.389-0.721-6.331 0.128-0.4 0.592-0.271 1.135-1.135 0.949-1.506 0.664-3.847-0.971-4.946-1.135-0.749-2.277-0.792-3.847-0.792-0.928 0.007-3.89-0.107-4.582 0.057l-0.014 13.925z"></path>
<path d="M43.418 7.667c0.086 0.428 2.484 3.84 2.955 4.554 0.528 0.792 2.634 4.076 3.055 4.511l2.441-0.007 0.014-13.954c-0.457-0.136-1.999-0.086-2.527-0.036l-0.036 9.457c-0.485-0.257-5.831-9.065-6.217-9.336-0.178-0.228 0.014-0.064-0.257-0.15l-1.006-0.029c-0.45 0-0.942-0.057-1.363 0.071l-0.021 13.954c0.443 0.114 2.234 0.114 2.648 0.007 0.2-1.37-0.078-7.916 0.014-8.665 0.078-0.671-0.107-0.343 0.3-0.378z"></path>
<path d="M138.94 4.898c1.27-0.314 2.669 0.3 3.397 0.985 0.757 0.714 1.306 1.763 1.37 3.191 0.136 2.976-0.906 5.053-3.59 5.489-1.206 0.193-2.691-0.414-3.369-1.071-1.727-1.684-1.856-4.925-0.635-6.845 0.807-1.256 1.677-1.456 2.826-1.749zM139.554 2.449c-9.422 0.007-9.179 14.653 0.1 14.525 9.2-0.136 9.058-14.532-0.1-14.525z"></path>
<path d="M151.702 5.162c2.719-0.35 4.811 0.214 5.781 1.941 1.092 1.949 0.999 7.080-3.376 7.195-2.163 0.057-2.412 0.207-2.434-0.464-0.064-1.642-0.078-7.423 0.029-8.672zM149.132 16.674c1.313 0.121 3.219 0.043 4.568 0.021 4.24-0.050 7.002-2.348 7.002-6.916 0-4.604-2.876-6.995-6.902-7.030-1.363-0.014-3.362-0.121-4.661 0.021l-0.007 13.904z"></path>
<path d="M109.711 11.621c0.029-0.635 1.656-5.346 1.849-5.524 0.293 0.721 1.72 5.025 1.756 5.532l-3.604-0.007zM105.215 16.746l2.691-0.007c0.171-0.357 0.357-0.978 0.5-1.442 0.535-1.727 0.143-1.385 2.655-1.385l3.026 0.007c0.471 0.628 0.65 2.17 1.085 2.734 0.493 0.228 1.984 0.1 2.641 0.086 0.036-0.557-3.026-8.886-3.626-10.585-0.128-0.364-1.014-3.355-1.413-3.44l-2.705 0.007c-0.55 1.328-1.841 5.246-2.448 6.952-0.343 0.964-2.42 6.495-2.405 7.073z"></path>
<path d="M91.596 2.756c-0.407-0.071-0.835-0.043-1.249-0.043-0.236 0-0.485-0.014-0.721-0.007l-0.457 0.043c-0.021 0.007-0.057 0.021-0.071 0.029-0.407 0.121-0.15 6.331-0.15 7.202 0 1.242 0.143 2.37-0.385 3.262-1.106 1.856-4.104 1.542-4.975 0.171-0.585-0.928-0.464-2.084-0.457-3.326 0.007-2.227 0.164-5.189-0.014-7.323l-2.548-0.057c-0.1 0.792-0.1 9.143 0.014 9.857 0.45 2.727 2.384 4.44 5.517 4.404 2.955-0.029 5.018-1.77 5.417-4.454 0.15-0.985 0.193-8.679 0.079-9.757z"></path>
<path d="M172.022 16.603l-0.029-2.198c-1.67-0.335-4.411 0.178-6.131-0.107l-0.036-3.462 5.467-0.021 0.021-2.227-5.453-0.021c-0.093-0.507-0.107-3.069 0.036-3.455l5.988-0.029 0.007-2.298c-1.121-0.107-7.609-0.15-8.494 0.029l-0.021 13.818c0.685 0.114 8.023 0.107 8.644-0.029z"></path>
<path d="M63.346 8.588c-0.093-0.25 0.107-0.043-0.2-0.136-0.114-0.029-0.157-0.029-0.278-0.036-0.186-0.014-0.507 0.007-0.714 0.007l-4.175 0.007-0.021-3.205 6.060-0.007c0.171-0.435 0.107-0.857 0.107-1.299l-0.107-1.156c-0.143-0.314-6.517-0.15-7.723-0.157-0.178 0-1.035-0.071-1.063 0.157-0.014 0.114-0.107-0.029-0.1 0.65l0.007 6.267c0.007 1.32-0.164 6.153 0.057 7.066 0.592 0.236 7.887 0.171 8.936 0.078l0.043-2.198c-0.093-0.371 0.014-0.171-0.186-0.314-0.343-0.157-1.042-0.079-1.435-0.079-1.128 0-3.84 0.057-4.632-0.036v-3.24c1.178-0.107 4.746 0.171 5.496-0.107 0.014-0.635 0.157-1.97-0.071-2.263z"></path>
<path d="M125.707 16.974c2.013-0.007 4.618-1.192 5.36-2.648-0.143-0.35-0.55-0.607-0.792-0.821-0.3-0.264-0.55-0.571-0.928-0.749-0.607 0.271-2.52 2.605-5.103 1.606-1.806-0.692-2.712-2.255-2.712-4.582 0-4.14 2.948-5.66 5.567-4.732 0.985 0.35 1.428 0.935 2.148 1.52 0.35-0.093 1.677-1.049 1.913-1.435-0.25-0.678-1.385-1.556-2.027-1.92-3.219-1.813-10.449-0.771-10.307 6.567 0.086 4.268 2.541 7.202 6.881 7.195z"></path>
<path d="M95.087 16.66l8.494 0.043-0.014-2.405-5.853-0.021c-0.043-1.606 0.164-10.892-0.079-11.477-0.128-0.064 0.007-0.036-0.236-0.071l-2.284 0.007-0.029 13.925z"></path>
<path d="M46.744 29.436l0.721 0.021 0.828-2.505c0.043-0.143 0.071-0.328 0.107-0.428 0.157-0.5-0.036-0.25 0.214-0.328l0.956 3.226 0.764-0.007c0.25-0.421 1.635-4.647 1.656-5.118h-0.999l-0.949 3.54c-0.257-0.193-0.878-2.776-1.171-3.54l-0.564 0.007c-0.464 0.607-0.792 2.948-1.206 3.526-0.236-0.521-0.778-2.841-0.914-3.169-0.164-0.407 0.064-0.378-1.071-0.371 0.036 0.849 1.278 4.14 1.627 5.146z"></path>
<path d="M130.939 28.373c-0.692 0.764-2.17 0.086-1.756-0.771 0.257-0.521 0.657-0.464 0.964-0.136 0.207 0.228 0.699 0.671 0.792 0.906zM129.597 25.24c0.985-0.992 1.67 0.557 0.457 0.892-0.328-0.2-0.493-0.414-0.457-0.892zM129.161 26.596c-0.906 0.414-1.37 1.599-0.457 2.42 1.156 1.035 2.769 0.071 3.133 0.007 0.335 0.521 0.357 0.478 1.213 0.421-0.007-0.335-0.578-0.821-0.778-1.071 0.107-0.671 0.414-0.621 0.335-1.542l-0.635-0.036c-0.014 0.043-0.036 0.050-0.043 0.1s-0.057 0.136-0.071 0.164l-0.293 0.6-0.949-0.892c0.378-0.393 0.885-0.471 0.942-1.228 0.107-1.535-2.048-1.692-2.641-0.721-0.507 0.821 0.043 1.171 0.243 1.777z"></path>
<path d="M162.908 26.053c0.293 0.143 1.792 2.32 2.17 2.862 0.35 0.507 0.3 0.578 1.128 0.528 0.157-0.564 0.086-4.311 0.050-5.132l-0.871-0.021-0.014 3.426c-0.25-0.107-2.27-2.976-2.527-3.419l-0.842 0.021c-0.021 1.256-0.128 3.654-0.007 4.768 0.036 0.357 0.236 0.514 0.671 0.371 0.35-0.114 0.236-0.5 0.228-0.978-0.014-0.785-0.036-1.649 0.014-2.427z"></path>
<path d="M60.876 28.451c-0.278 0.364-1.085 0.214-1.527 0.186-0.143-0.428-0.1-0.942-0.043-1.392 0.343-0.050 0.685-0.057 1.035-0.043 0.742 0.036 0.614 0.221 0.707 0.364 0.278 0.114 0.193 0.757-0.171 0.885zM59.327 25.14c0.714-0.093 1.77-0.171 1.706 0.699-0.057 0.785-1.035 0.664-1.706 0.592v-1.292zM58.392 29.408c0.892 0.1 2.691 0.15 3.283-0.3 0.328-0.25 0.528-0.642 0.485-1.242-0.050-0.785-0.428-0.735-0.728-1.106 0.257-0.407 0.55-0.414 0.55-1.113 0.007-1.67-2.305-1.477-3.576-1.328l-0.014 5.089z"></path>
<path d="M118.419 27.666c-0.35-0.136-1.192-1.492-1.463-1.849-0.278-0.378-0.407-0.564-0.678-0.942-0.421-0.607-0.271-0.65-1.199-0.557l-0.007 5.089 0.864 0.029 0.014-3.426 2.534 3.412 0.849-0.014v-5.11l-0.849-0.021-0.064 3.39z"></path>
<path d="M104.216 26.403l0.978 1.77c0.178 0.321 0.157 0.414 0.507 0.521 0.221-0.207 1.278-1.863 1.363-2.227 0.514-0.064-0.021 1.77 0.271 3.005 0.407 0.086 0.542 0.1 0.942-0.043l0.029-5.139-0.942-0.057-0.164 0.464-1.492 2.548c-0.257-0.114-0.343-0.385-0.471-0.621l-1.32-2.255c-0.15-0.143 0.35-0.236-0.885-0.093l-0.029 5.153c0.435 0.15 0.55 0.143 0.956 0.029 0.15-0.642 0.021-2.512 0.057-2.812 0.064-0.464-0.079-0.236 0.2-0.243z"></path>
<path d="M137.791 25.746c0-0.578-0.093-0.65 0.55-0.65 1.206-0.007 1.906 0.592 1.906 1.763 0 1.542-1.092 1.884-2.448 1.656l-0.007-2.769zM136.941 24.347c-0.021 1.47-0.064 3.191-0.014 4.647 0.021 0.578 0.178 0.55 1.82 0.464 3.633-0.193 3.547-6.238-1.806-5.111z"></path>
<path d="M93.309 25.14c0.864-0.421 1.87 0.364 2.041 1.035 0.285 1.085-0.1 2.006-0.906 2.355-1.984 0.849-3.033-2.455-1.135-3.39zM93.067 24.333c-3.162 1.235-1.563 6.103 1.62 5.046 1.299-0.428 1.991-1.856 1.606-3.326-0.3-1.156-1.734-2.305-3.226-1.72z"></path>
<path d="M160.046 28.537c0.236-0.65 0.4-0.942 0.293-1.77l-2.106-0.007 0.029 0.621 1.278 0.021c-0.021 0.228 0.021 0.221-0.071 0.457-0.178 0.435-0.029 0.093-0.236 0.257-0.821 1.156-2.834 0.4-2.741-1.356 0.043-0.749 0.45-1.363 1.056-1.592 0.971-0.364 1.463 0.207 2.013 0.407 0.307-0.164 0.35-0.236 0.514-0.535-0.857-1.378-4.647-1.206-4.554 1.92 0.078 2.534 3.29 3.412 4.525 1.577z"></path>
<path d="M67.036 28.551c-0.079-0.528-0.1-2.983 0.021-3.455 1.342-0.057 2.37 0.3 2.377 1.763 0.007 1.427-0.992 1.806-2.398 1.692zM68.578 24.447c-0.457-0.414-2.27-0.228-2.527-0.157l-0.029 5.132c0.414 0.15 1.506 0.136 1.999 0.093 0.036-0.007 0.25-0.036 0.278-0.043 0.271-0.086 0.193-0.1 0.293-0.186 1.021-0.050 1.82-1.285 1.827-2.427 0.014-1.206-0.828-2.377-1.841-2.413z"></path>
<path d="M148.040 28.023c-0.3 0.128-0.335 0.157-0.578 0.35 0.278 1.242 2.948 1.535 3.662 0.357 1.171-1.927-1.863-2.184-2.577-2.762l0.014-0.607c1.185-0.757 1.763 0.136 2.006 0.285 1.67-0.557-0.535-1.734-1.991-1.292-1.014 0.307-1.356 1.634-0.571 2.348 0.671 0.607 2.334 0.55 2.355 1.27 0.007 0.457-0.564 0.721-1.099 0.678-0.642-0.050-0.799-0.45-1.221-0.628z"></path>
<path d="M146.077 28.687c-2.098-0.285-2.484 0.792-2.355-1.42 1.335-0.385 2.284 0.478 1.991-0.749l-2.006-0.078 0.050-1.363 2.291-0.071-0.050-0.721-3.155-0.007c-0.029 0.136-0.143 4.361-0.029 4.882 0.007 0.029 0.021 0.057 0.021 0.078 0.007 0.021 0.029 0.057 0.029 0.071 0.128 0.364 2.641 0.164 3.119 0.136l0.093-0.757z"></path>
<path d="M71.954 29.394l3.176 0.050-0.021-0.857c-2.412-0.064-2.348 0.457-2.213-1.299l2.027-0.050 0.021-0.728-2.056-0.064-0.021-1.299 2.184-0.050 0.050-0.814-3.091-0.007-0.057 5.118z"></path>
<path d="M78.356 29.436l0.735 0.021c0.321-0.692 1.913-4.575 1.991-5.153l-1.035 0.007-1.299 3.726c-0.207-0.257-0.585-1.52-0.721-1.891-0.107-0.314-0.243-0.628-0.35-0.964-0.050-0.171-0.086-0.328-0.143-0.457-0.193-0.492 0-0.443-1.185-0.435 0.064 0.535 1.72 4.725 2.006 5.146z"></path>
<path d="M98.891 25.19c2.148-0.692 2.17 2.156-0.007 1.513l0.007-1.513zM97.999 29.408l0.914 0.007c0.007-0.343 0.007-0.642 0-0.942 0-0.107-0.007-0.314 0-0.407 0.014-0.193-0.007-0.007 0.021-0.186 0.136-0.714 0.999 0.029 1.927-0.607 0.707-0.492 1.806-3.476-2.848-2.955l-0.014 5.089z"></path>
<path d="M110.197 29.408c0.742 0.014 2.47 0.086 3.083-0.057 0.271-1.278-0.607-0.421-2.213-0.771l-0.021-1.32 2.013-0.078 0.064-0.678-1.991-0.014c-0.171-0.45-0.114-1.135 0.007-1.378l2.141-0.064 0.007-0.692-3.062-0.036-0.029 5.089z"></path>
<path d="M82.525 29.344l3.119 0.043v-0.685l-2.227-0.057c-0.207-0.421-0.193-1.028 0-1.435l2.020-0.036 0.029-0.614-1.792-0.057c-0.457-0.021-0.121 0.029-0.264-0.15l-0.007-1.249 2.32-0.029v-0.764l-3.183-0.021-0.014 5.053z"></path>
<path d="M56.615 29.301l0.007-0.564c-0.114-0.457-1.163-0.15-2.22-0.25l0.021-1.142 1.999-0.014c0.15-1.028-0.007-0.735-0.107-0.878l-1.87 0.007-0.043-1.27c0.906-0.1 2.084 0.128 2.263-0.186 0.093-0.171 0.050-0.6-0.043-0.692-0.2-0.207-2.826-0.136-3.219-0.043-0.15 0.514-0.143 4.625-0.014 5.189 0.621 0.171 2.17 0.071 2.905 0.071 0.621-0.071 0.128 0.014 0.321-0.228z"></path>
<path d="M120.889 24.362l-0.093 0.721 1.399 0.029c0.114 1.106 0.050 3.141 0.043 4.297l0.878 0.029c0.157-4.882-0.671-4.268 1.435-4.347v-0.792c-0.949-0.021-3.083-0.128-3.662 0.064z"></path>
<path d="M88.249 24.319l-0.735 0.021c-0.3 0.15-0.164 0.285-0.164 1.206l0.029 3.883c0.457 0.193 2.62 0.171 3.126 0.014l0.043-0.857c-0.585-0.207-1.449-0.1-2.063-0.086-0.178-0.485-0.079-1.485-0.079-2.048 0-0.421 0.157-1.827-0.157-2.134z"></path>
<path d="M153.079 29.408l0.764-0.007-0.029-5.075-0.757 0.007z"></path>
</symbol>


  </defs>
</svg>